<?xml version="1.0" encoding="UTF-8" standalone="no"?>
<!DOCTYPE svg PUBLIC "-//W3C//DTD SVG 1.1//EN" "http://www.w3.org/Graphics/SVG/1.1/DTD/svg11.dtd">
<svg width="100%" height="100%" viewBox="0 0 130 130" version="1.1" xmlns="http://www.w3.org/2000/svg" xmlns:xlink="http://www.w3.org/1999/xlink" xml:space="preserve" xmlns:serif="http://www.serif.com/" style="fill-rule:evenodd;clip-rule:evenodd;stroke-linejoin:round;stroke-miterlimit:2;">
    <g transform="matrix(1,0,0,1,-244.997,4.99813)">
        <g>
            <g transform="matrix(1,0,0,1,259.88,3.98)">
                <path d="M100.23,36.27C99.82,45.02 100.75,56.1 99.75,67.18C98.774,79.487 93.03,90.939 83.75,99.08C70.47,111.08 54.84,114.52 37.5,110.34C36.36,110.07 34.9,110.09 34.55,108.54C34.2,106.99 35.45,106.36 36.34,105.54C43.34,99.11 49.49,92.05 51.9,82.54C53.525,76.152 54.378,69.591 54.44,63C54.547,48.667 54.547,34.333 54.44,20C54.44,16.95 55.17,15.1 58.38,14C71,9.62 83.44,5 96,0.54C99.33,-0.64 100.2,0 100.22,3.71C100.27,13.79 100.23,23.87 100.23,36.27Z" style="fill:rgb(3,105,161);fill-rule:nonzero;"/>
            </g>
            <g transform="matrix(1,0,0,1,259.88,3.98)">
                <path d="M45.79,52.05C45.52,58.05 46.15,65.46 45.24,72.83C44.17,81.46 41.08,89 34.74,95.1C32.4,97.34 30.02,99.54 27.74,101.8C25.21,104.27 22.84,104.1 20.06,101.96C12.473,96.129 6.683,88.273 3.36,79.3C-0.76,68.63 0,57.54 0.12,46.5C0.139,44.765 1.322,43.244 3,42.8C15.74,38.18 28.43,33.54 41.16,29C44.54,27.79 45.75,28.72 45.78,32.25C45.83,38.4 45.79,44.55 45.79,52.05Z" style="fill:rgb(56,189,248);fill-rule:nonzero;"/>
            </g>
        </g>
    </g>
</svg>
