<?xml version="1.0" encoding="UTF-8" standalone="no"?>
<!DOCTYPE svg PUBLIC "-//W3C//DTD SVG 1.1//EN" "http://www.w3.org/Graphics/SVG/1.1/DTD/svg11.dtd">
<svg width="100%" height="100%" viewBox="0 0 500 130" version="1.1" xmlns="http://www.w3.org/2000/svg" xmlns:xlink="http://www.w3.org/1999/xlink" xml:space="preserve" xmlns:serif="http://www.serif.com/" style="fill-rule:evenodd;clip-rule:evenodd;stroke-linejoin:round;stroke-miterlimit:2;">
    <g transform="matrix(1,0,0,1,0.0337417,4.99813)">
        <g transform="matrix(1,0,0,1,-249.868,0)">
            <g transform="matrix(1,0,0,1,259.88,3.98)">
                <path d="M100.23,36.27C99.82,45.02 100.75,56.1 99.75,67.18C98.774,79.487 93.03,90.939 83.75,99.08C70.47,111.08 54.84,114.52 37.5,110.34C36.36,110.07 34.9,110.09 34.55,108.54C34.2,106.99 35.45,106.36 36.34,105.54C43.34,99.11 49.49,92.05 51.9,82.54C53.525,76.152 54.378,69.591 54.44,63C54.547,48.667 54.547,34.333 54.44,20C54.44,16.95 55.17,15.1 58.38,14C71,9.62 83.44,5 96,0.54C99.33,-0.64 100.2,0 100.22,3.71C100.27,13.79 100.23,23.87 100.23,36.27Z" style="fill:rgb(3,105,161);fill-rule:nonzero;"/>
            </g>
            <g transform="matrix(1,0,0,1,259.88,3.98)">
                <path d="M45.79,52.05C45.52,58.05 46.15,65.46 45.24,72.83C44.17,81.46 41.08,89 34.74,95.1C32.4,97.34 30.02,99.54 27.74,101.8C25.21,104.27 22.84,104.1 20.06,101.96C12.473,96.129 6.683,88.273 3.36,79.3C-0.76,68.63 0,57.54 0.12,46.5C0.139,44.765 1.322,43.244 3,42.8C15.74,38.18 28.43,33.54 41.16,29C44.54,27.79 45.75,28.72 45.78,32.25C45.83,38.4 45.79,44.55 45.79,52.05Z" style="fill:rgb(56,189,248);fill-rule:nonzero;"/>
            </g>
        </g>
        <g transform="matrix(1,0,0,1,-10.4428,-7.95249)">
            <path d="M140.51,41.948C140.51,41.125 140.853,40.325 141.539,39.547C142.226,38.77 143.369,38.381 144.97,38.381C146.571,38.381 147.714,38.747 148.401,39.478C149.087,40.21 149.43,41.034 149.43,41.948L149.43,67.335C149.43,69.256 149.59,70.994 149.91,72.549C150.23,74.104 150.768,75.431 151.522,76.528C152.277,77.626 153.306,78.472 154.61,79.067C155.914,79.662 157.572,79.959 159.584,79.959C161.551,79.959 163.175,79.673 164.456,79.101C165.736,78.53 166.754,77.706 167.509,76.631C168.263,75.556 168.778,74.241 169.053,72.686C169.327,71.131 169.464,69.347 169.464,67.335L169.464,41.948C169.464,41.125 169.784,40.325 170.425,39.547C171.065,38.77 172.232,38.381 173.924,38.381C175.525,38.381 176.668,38.747 177.354,39.478C178.041,40.21 178.384,41.034 178.384,41.948L178.384,71.588C178.384,74.333 177.846,76.723 176.771,78.758C175.696,80.794 174.278,82.498 172.517,83.87C170.756,85.242 168.744,86.26 166.48,86.923C164.215,87.586 161.894,87.918 159.516,87.918C157.183,87.918 154.884,87.586 152.62,86.923C150.356,86.26 148.332,85.253 146.548,83.904C144.764,82.555 143.312,80.862 142.191,78.827C141.071,76.791 140.51,74.379 140.51,71.588L140.51,41.948Z" style="fill-rule:nonzero;"/>
            <path d="M207.818,65.619C207.818,64.156 207.726,62.863 207.543,61.743C207.36,60.622 207.029,59.696 206.548,58.964C206.068,58.232 205.394,57.683 204.524,57.317C203.655,56.951 202.558,56.768 201.231,56.768C200.133,56.768 199.116,56.883 198.178,57.112C197.24,57.34 196.44,57.763 195.777,58.381C195.113,58.998 194.587,59.867 194.198,60.988C193.81,62.109 193.615,63.538 193.615,65.276L193.615,84.693C193.615,85.471 193.215,86.145 192.415,86.717C191.614,87.289 190.596,87.575 189.361,87.575C188.126,87.575 187.109,87.278 186.308,86.683C185.508,86.088 185.108,85.425 185.108,84.693L185.108,52.72C185.108,51.897 185.531,51.211 186.377,50.662C187.223,50.113 188.241,49.839 189.43,49.839C190.619,49.839 191.614,50.113 192.415,50.662C193.215,51.211 193.615,51.897 193.615,52.72L193.615,56.082C194.027,55.259 194.519,54.436 195.09,53.612C195.662,52.789 196.348,52.046 197.149,51.383C197.949,50.719 198.864,50.182 199.893,49.77C200.922,49.358 202.1,49.153 203.427,49.153C205.394,49.153 207.166,49.427 208.744,49.976C210.322,50.525 211.671,51.337 212.792,52.412C213.913,53.487 214.782,54.847 215.399,56.494C216.017,58.141 216.326,60.062 216.326,62.257L216.326,84.693C216.326,85.517 215.948,86.203 215.193,86.752C214.439,87.3 213.421,87.575 212.14,87.575C210.86,87.575 209.819,87.3 209.018,86.752C208.218,86.203 207.818,85.517 207.818,84.693L207.818,65.619Z" style="fill-rule:nonzero;"/>
            <path d="M232.037,84.007C232.037,84.876 231.649,85.688 230.871,86.443C230.094,87.197 229.041,87.575 227.715,87.575C226.389,87.575 225.336,87.209 224.559,86.477C223.781,85.745 223.392,84.922 223.392,84.007L223.392,53.818C223.392,52.446 223.85,51.44 224.765,50.799C225.68,50.159 226.663,49.839 227.715,49.839C228.767,49.839 229.75,50.148 230.665,50.765C231.58,51.383 232.037,52.4 232.037,53.818L232.037,84.007ZM223.049,41.605C223.049,40.279 223.495,39.17 224.387,38.278C225.279,37.386 226.389,36.94 227.715,36.94C229.041,36.94 230.151,37.386 231.043,38.278C231.935,39.17 232.381,40.279 232.381,41.605C232.381,42.932 231.935,44.041 231.043,44.933C230.151,45.825 229.041,46.271 227.715,46.271C226.389,46.271 225.279,45.825 224.387,44.933C223.495,44.041 223.049,42.932 223.049,41.605Z" style="fill-rule:nonzero;"/>
            <path d="M288.916,82.292C289.008,82.978 289.042,83.641 289.019,84.282C288.996,84.922 288.847,85.482 288.573,85.962C288.299,86.443 287.864,86.832 287.269,87.129C286.675,87.426 285.851,87.575 284.799,87.575C283.336,87.621 282.341,87.289 281.815,86.58C281.289,85.871 280.911,84.716 280.683,83.115L277.389,58.347C277.206,57.294 276.932,56.768 276.566,56.768C276.2,56.768 275.857,57.294 275.537,58.347L267.852,84.693C267.624,85.562 267.246,86.26 266.72,86.786C266.194,87.312 265.199,87.575 263.736,87.575C262.958,87.575 262.318,87.518 261.815,87.403C261.312,87.289 260.9,87.106 260.58,86.854C260.259,86.603 260.019,86.306 259.859,85.962C259.699,85.619 259.551,85.196 259.413,84.693C258.087,80.256 256.772,75.877 255.468,71.554C254.165,67.232 252.872,62.852 251.592,58.415C251.271,57.317 250.94,56.768 250.597,56.768C250.254,56.768 249.991,57.317 249.808,58.415L246.583,82.703C246.354,84.35 245.908,85.574 245.245,86.374C244.582,87.175 243.381,87.575 241.643,87.575C240.225,87.575 239.242,87.175 238.693,86.374C238.144,85.574 238.03,84.213 238.35,82.292L244.25,43.389C244.479,41.788 245.085,40.553 246.068,39.684C247.052,38.815 248.275,38.381 249.739,38.381C251.203,38.381 252.438,38.747 253.444,39.478C254.45,40.21 255.274,41.674 255.914,43.87L263.736,72.549L271.352,43.732C271.946,41.583 272.758,40.153 273.787,39.444C274.816,38.735 276.017,38.381 277.389,38.381C278.716,38.381 279.917,38.827 280.991,39.719C282.066,40.611 282.741,41.903 283.016,43.595L288.916,82.292Z" style="fill-rule:nonzero;"/>
            <path d="M301.197,68.913C301.243,73.075 302.009,76.071 303.496,77.901C304.982,79.73 307.052,80.645 309.705,80.645C312.358,80.645 314.302,79.605 315.537,77.523C316.772,75.442 317.367,72.595 317.321,68.981C317.275,65.276 316.623,62.337 315.366,60.165C314.108,57.992 312.175,56.86 309.568,56.768C306.961,56.723 304.902,57.695 303.393,59.684C301.884,61.674 301.152,64.75 301.197,68.913ZM317.115,81.812C316.063,84.144 314.76,85.745 313.204,86.614C311.649,87.483 309.751,87.918 307.51,87.918C305.268,87.918 303.221,87.495 301.369,86.649C299.516,85.802 297.927,84.567 296.6,82.944C295.274,81.32 294.245,79.33 293.513,76.974C292.781,74.619 292.415,71.932 292.415,68.913C292.415,65.208 292.838,62.097 293.685,59.582C294.531,57.066 295.651,55.03 297.046,53.475C298.442,51.92 300.054,50.811 301.884,50.148C303.713,49.484 305.611,49.153 307.578,49.153C309.774,49.153 311.718,49.759 313.41,50.971C315.103,52.183 316.383,53.955 317.252,56.288L317.252,53.407C317.252,52.675 317.607,51.897 318.316,51.074C319.025,50.25 320.111,49.839 321.575,49.839C323.039,49.884 324.125,50.308 324.834,51.108C325.543,51.909 325.897,52.675 325.897,53.407L325.897,83.938C325.897,84.67 325.612,85.436 325.04,86.237C324.468,87.037 323.29,87.46 321.506,87.506C320.591,87.506 319.86,87.392 319.311,87.163C318.762,86.934 318.316,86.637 317.973,86.271C317.63,85.905 317.401,85.517 317.287,85.105C317.172,84.693 317.115,84.304 317.115,83.938L317.115,81.812Z" style="fill-rule:nonzero;"/>
            <path d="M354.234,65.619C354.234,64.156 354.142,62.863 353.959,61.743C353.776,60.622 353.445,59.696 352.964,58.964C352.484,58.232 351.81,57.683 350.94,57.317C350.071,56.951 348.974,56.768 347.647,56.768C346.549,56.768 345.532,56.883 344.594,57.112C343.656,57.34 342.856,57.763 342.193,58.381C341.529,58.998 341.003,59.867 340.614,60.988C340.226,62.109 340.031,63.538 340.031,65.276L340.031,84.693C340.031,85.471 339.631,86.145 338.831,86.717C338.03,87.289 337.012,87.575 335.777,87.575C334.542,87.575 333.525,87.278 332.724,86.683C331.924,86.088 331.524,85.425 331.524,84.693L331.524,52.72C331.524,51.897 331.947,51.211 332.793,50.662C333.639,50.113 334.657,49.839 335.846,49.839C337.035,49.839 338.03,50.113 338.831,50.662C339.631,51.211 340.031,51.897 340.031,52.72L340.031,56.082C340.443,55.259 340.935,54.436 341.506,53.612C342.078,52.789 342.764,52.046 343.565,51.383C344.365,50.719 345.28,50.182 346.309,49.77C347.338,49.358 348.516,49.153 349.843,49.153C351.81,49.153 353.582,49.427 355.16,49.976C356.738,50.525 358.087,51.337 359.208,52.412C360.329,53.487 361.198,54.847 361.815,56.494C362.433,58.141 362.742,60.062 362.742,62.257L362.742,84.693C362.742,85.517 362.364,86.203 361.609,86.752C360.855,87.3 359.837,87.575 358.556,87.575C357.276,87.575 356.235,87.3 355.434,86.752C354.634,86.203 354.234,85.517 354.234,84.693L354.234,65.619Z" style="fill-rule:nonzero;"/>
            <path d="M376.121,68.913C376.166,73.075 376.933,76.071 378.419,77.901C379.906,79.73 381.976,80.645 384.628,80.645C387.281,80.645 389.225,79.605 390.46,77.523C391.695,75.442 392.29,72.595 392.244,68.981C392.199,65.276 391.547,62.337 390.289,60.165C389.031,57.992 387.098,56.86 384.491,56.768C381.884,56.723 379.826,57.695 378.316,59.684C376.807,61.674 376.075,64.75 376.121,68.913ZM392.038,81.812C390.986,84.144 389.683,85.745 388.128,86.614C386.572,87.483 384.674,87.918 382.433,87.918C380.192,87.918 378.145,87.495 376.292,86.649C374.44,85.802 372.85,84.567 371.524,82.944C370.197,81.32 369.168,79.33 368.436,76.974C367.704,74.619 367.339,71.932 367.339,68.913C367.339,65.208 367.762,62.097 368.608,59.582C369.454,57.066 370.575,55.03 371.97,53.475C373.365,51.92 374.977,50.811 376.807,50.148C378.636,49.484 380.535,49.153 382.502,49.153C384.697,49.153 386.641,49.759 388.333,50.971C390.026,52.183 391.307,53.955 392.176,56.288L392.176,53.407C392.176,52.675 392.53,51.897 393.239,51.074C393.948,50.25 395.034,49.839 396.498,49.839C397.962,49.884 399.048,50.308 399.757,51.108C400.466,51.909 400.821,52.675 400.821,53.407L400.821,83.938C400.821,84.67 400.535,85.436 399.963,86.237C399.391,87.037 398.213,87.46 396.43,87.506C395.515,87.506 394.783,87.392 394.234,87.163C393.685,86.934 393.239,86.637 392.896,86.271C392.553,85.905 392.324,85.517 392.21,85.105C392.096,84.693 392.038,84.304 392.038,83.938L392.038,81.812Z" style="fill-rule:nonzero;"/>
            <path d="M437.802,85.105C437.802,87.209 437.356,89.13 436.464,90.868C435.572,92.606 434.36,94.081 432.828,95.294C431.295,96.506 429.466,97.432 427.339,98.072C425.212,98.713 422.913,99.01 420.443,98.964C418.751,98.964 417.299,98.861 416.087,98.656C414.875,98.45 413.8,98.152 412.862,97.764C411.924,97.375 411.101,96.94 410.392,96.46C409.683,95.98 408.963,95.465 408.231,94.916C407.819,94.596 407.419,94.242 407.03,93.853C406.641,93.464 406.344,93.018 406.138,92.515C405.932,92.012 405.841,91.428 405.864,90.765C405.886,90.102 406.104,89.336 406.515,88.467C407.019,87.415 407.67,86.832 408.471,86.717C409.271,86.603 410.129,86.934 411.044,87.712C412.142,88.673 413.445,89.496 414.955,90.182C416.464,90.868 418.499,91.165 421.061,91.074C422.342,91.074 423.485,90.891 424.492,90.525C425.498,90.159 426.333,89.679 426.996,89.084C427.659,88.49 428.162,87.838 428.505,87.129C428.848,86.42 429.02,85.745 429.02,85.105L429.02,80.302C428.242,82.36 427.007,83.881 425.315,84.865C423.622,85.848 421.656,86.34 419.414,86.34C417.173,86.34 415.126,85.94 413.274,85.139C411.421,84.339 409.832,83.149 408.505,81.571C407.179,79.993 406.149,78.049 405.418,75.739C404.686,73.43 404.32,70.765 404.32,67.746C404.32,64.041 404.743,60.988 405.589,58.587C406.435,56.185 407.556,54.287 408.951,52.892C410.346,51.497 411.959,50.525 413.788,49.976C415.618,49.427 417.516,49.153 419.483,49.153C421.678,49.153 423.622,49.736 425.315,50.902C427.007,52.069 428.288,53.818 429.157,56.151L429.157,53.407C429.157,52.675 429.512,51.897 430.221,51.074C430.93,50.25 432.016,49.839 433.48,49.839C434.943,49.839 436.03,50.25 436.739,51.074C437.448,51.897 437.802,52.675 437.802,53.407L437.802,85.105ZM413.171,67.609C413.171,69.622 413.365,71.28 413.754,72.583C414.143,73.887 414.703,74.939 415.435,75.739C416.167,76.54 417.047,77.1 418.076,77.42C419.106,77.741 420.261,77.901 421.541,77.901C424.148,77.901 426.07,77.089 427.305,75.465C428.54,73.841 429.134,71.245 429.088,67.678C429.043,60.496 426.481,56.86 421.404,56.768C418.934,56.723 416.933,57.535 415.401,59.204C413.868,60.874 413.125,63.675 413.171,67.609Z" style="fill-rule:nonzero;"/>
            <path d="M465.041,65.551C465.041,64.407 464.949,63.298 464.766,62.223C464.583,61.148 464.252,60.21 463.771,59.41C463.291,58.61 462.651,57.969 461.85,57.489C461.05,57.009 460.009,56.768 458.728,56.768C457.082,56.768 455.755,57.054 454.749,57.626C453.743,58.198 452.965,58.93 452.416,59.822C451.867,60.714 451.501,61.674 451.318,62.703C451.135,63.732 451.044,64.682 451.044,65.551L465.041,65.551ZM458.934,88.261C456.144,88.261 453.72,87.804 451.661,86.889C449.603,85.974 447.888,84.682 446.516,83.012C445.143,81.343 444.114,79.319 443.428,76.94C442.742,74.562 442.399,71.909 442.399,68.981C442.399,66.145 442.742,63.515 443.428,61.091C444.114,58.667 445.155,56.574 446.55,54.813C447.945,53.052 449.672,51.668 451.73,50.662C453.788,49.656 456.19,49.153 458.934,49.153C461.541,49.153 463.76,49.61 465.59,50.525C467.419,51.44 468.917,52.675 470.084,54.23C471.25,55.785 472.108,57.592 472.656,59.65C473.205,61.708 473.48,63.881 473.48,66.168C473.48,68.089 473.228,69.553 472.725,70.559C472.222,71.566 471.284,72.069 469.912,72.069L451.044,72.069C451.044,73.121 451.158,74.15 451.387,75.156C451.616,76.163 452.039,77.077 452.656,77.901C453.274,78.724 454.097,79.387 455.126,79.89C456.156,80.394 457.471,80.645 459.071,80.645C461.13,80.645 462.742,80.336 463.909,79.719C465.075,79.101 466.001,78.404 466.687,77.626C467.19,77.032 467.694,76.666 468.197,76.528C468.7,76.391 469.169,76.38 469.603,76.494C470.038,76.609 470.427,76.78 470.77,77.009C471.113,77.237 471.399,77.42 471.627,77.558C472.496,78.244 472.839,79.193 472.656,80.405C472.474,81.617 471.822,82.806 470.701,83.973C469.58,85.139 468.025,86.145 466.036,86.992C464.046,87.838 461.679,88.261 458.934,88.261Z" style="fill-rule:nonzero;"/>
            <path d="M497.013,56.768C495.412,56.768 494.006,57.066 492.794,57.66C491.582,58.255 490.575,59.078 489.775,60.13C488.974,61.182 488.38,62.44 487.991,63.904C487.602,65.368 487.408,66.946 487.408,68.638L487.408,84.693C487.408,85.471 487.008,86.145 486.207,86.717C485.407,87.289 484.389,87.575 483.154,87.575C481.919,87.575 480.901,87.278 480.101,86.683C479.3,86.088 478.9,85.425 478.9,84.693L478.9,52.72C478.9,51.897 479.323,51.211 480.169,50.662C481.016,50.113 482.033,49.839 483.223,49.839C484.412,49.839 485.407,50.113 486.207,50.662C487.008,51.211 487.408,51.897 487.408,52.72L487.408,57.523C487.82,56.7 488.311,55.808 488.883,54.847C489.455,53.887 490.141,52.983 490.941,52.137C491.742,51.291 492.657,50.582 493.686,50.01C494.715,49.439 495.893,49.153 497.219,49.153C497.905,49.153 498.454,49.267 498.866,49.496C499.278,49.724 499.598,49.999 499.826,50.319C500.055,50.639 500.204,50.982 500.272,51.348C500.341,51.714 500.375,52.057 500.375,52.377C500.375,54.116 500.089,55.282 499.518,55.877C498.946,56.471 498.111,56.768 497.013,56.768Z" style="fill-rule:nonzero;"/>
        </g>
    </g>
</svg>
